<?xml version="1.0" encoding="utf-8"?>
<!-- Generator: Adobe Illustrator 25.2.1, SVG Export Plug-In . SVG Version: 6.00 Build 0)  -->
<svg version="1.1" id="Layer_1" xmlns="http://www.w3.org/2000/svg" xmlns:xlink="http://www.w3.org/1999/xlink" x="0px" y="0px"
	 viewBox="0 0 669 155.3" style="enable-background:new 0 0 669 155.3;" xml:space="preserve">
<style type="text/css">
	.st0{fill:url(#SVGID_1_);}
	.st1{fill:url(#SVGID_2_);}
	.st2{fill:url(#SVGID_3_);}
	.st3{fill:url(#SVGID_4_);}
	.st4{fill:url(#SVGID_5_);}
	.st5{fill:url(#SVGID_6_);}
	.st6{fill:url(#SVGID_7_);}
	.st7{fill:url(#SVGID_8_);}
	.st8{fill:url(#SVGID_9_);}
	.st9{fill:url(#SVGID_10_);}
	.st10{fill:url(#SVGID_11_);}
	.st11{fill:url(#SVGID_12_);}
	.st12{fill:url(#SVGID_13_);}
	.st13{fill:url(#SVGID_14_);}
	.st14{fill:url(#SVGID_15_);}
	.st15{fill:url(#SVGID_16_);}
	.st16{fill:url(#SVGID_17_);}
</style>
<g>
	<g>
		
			<linearGradient id="SVGID_1_" gradientUnits="userSpaceOnUse" x1="702.1929" y1="-997.0797" x2="729.2808" y2="-968.8141" gradientTransform="matrix(0.7071 -0.7071 -0.7071 -0.7071 -1116.8829 -116.7401)">
			<stop  offset="7.220000e-02" style="stop-color:#723D1D"/>
			<stop  offset="0.3782" style="stop-color:#C9A551"/>
			<stop  offset="0.6744" style="stop-color:#FFE37B"/>
			<stop  offset="0.8398" style="stop-color:#C9A551"/>
			<stop  offset="1" style="stop-color:#723D1D"/>
		</linearGradient>
		<path class="st0" d="M98.8,53.9c-0.1,0-1.3,0.5-3.2,0.9c-1.4,0.3-3.1,0.6-4.9,0.8c0,0,0,0,0,0c-1.1,0.1-2.2,0.1-3.4,0c0,0,0,0,0,0
			l-9.3,0.1l-0.5,0c-2.1,0-4.1,0.8-5.6,2.3c-0.6,0.6-1,1.2-1.4,1.8c-0.6,1.2-1,2.5-1,3.8l0,1.9l0,2.8h2.9v-4.7
			c0-1.4,0.5-2.7,1.5-3.7c0,0,0.1-0.1,0.2-0.2c1-0.9,2.2-1.4,3.5-1.4h9.9h2.8c1.7-0.1,3.3-0.3,4.7-0.6c-0.3,1.4-0.5,3-0.6,4.7
			c0,0.9-0.1,1.9,0,2.8v9.9c0,1.3-0.5,2.6-1.4,3.5c0,0-0.1,0.1-0.2,0.2c-0.9,0.9-2.2,1.5-3.7,1.5h-4.7v2.9l2.8,0l1.9,0
			c1.3,0,2.7-0.3,3.8-1c0.7-0.4,1.3-0.8,1.8-1.4c1.5-1.5,2.3-3.5,2.3-5.6l0-0.8l0.1-9.1c0,0,0,0,0,0c-0.1-1.2,0-2.3,0-3.5l0,0
			c0.2-1.8,0.5-3.5,0.8-4.9C98.3,55.2,98.8,54,98.8,53.9z"/>
		
			<linearGradient id="SVGID_2_" gradientUnits="userSpaceOnUse" x1="678.358" y1="-1001.0836" x2="712.3887" y2="-965.5733" gradientTransform="matrix(0.7071 -0.7071 -0.7071 -0.7071 -1116.8829 -116.7401)">
			<stop  offset="7.220000e-02" style="stop-color:#723D1D"/>
			<stop  offset="0.3782" style="stop-color:#C9A551"/>
			<stop  offset="0.6744" style="stop-color:#FFE37B"/>
			<stop  offset="0.8398" style="stop-color:#C9A551"/>
			<stop  offset="1" style="stop-color:#723D1D"/>
		</linearGradient>
		<path class="st1" d="M88.8,63.9c-0.1,0-1.6,0.6-3.9,1.1c-1.6,0.4-3.7,0.8-5.9,0.9c0,0,0,0,0,0c-1.3,0.1-2.7,0.1-4.1,0c0,0,0,0,0,0
			L68.7,66l-3.4,0l-1.6,0l-0.7,0c-2.6,0-5,1-6.8,2.8c-0.7,0.7-1.2,1.4-1.7,2.2c-0.8,1.4-1.2,2.9-1.2,4.6l-0.1,11.9c0,0,0,0,0,0
			c0.1,1.4,0.1,2.8,0,4.1c0,0,0,0,0,0c-0.2,2.2-0.5,4.3-0.9,5.9c-0.5,2.3-1.1,3.8-1.1,3.9c0.1,0,1.6-0.6,3.9-1.1
			c1.6-0.4,3.7-0.7,5.9-0.9c0,0,0,0,0,0c1.3-0.1,2.7-0.1,4.2,0c0,0,0,0,0,0L77,99.2c1.6,0,3.2-0.4,4.6-1.2c0.8-0.4,1.5-1,2.2-1.7
			c1.8-1.8,2.8-4.2,2.8-6.8l0-0.9l0-1.3l0-3.4l0.1-6.2c0,0,0,0,0,0c-0.1-1.4-0.1-2.8,0-4.2l0,0c0.2-2.2,0.5-4.2,0.9-5.9
			C88.2,65.5,88.8,64,88.8,63.9z M83.2,89.6c0,1.6-0.6,3.1-1.6,4.2c-0.1,0.1-0.1,0.1-0.2,0.2c-1.1,1.1-2.7,1.8-4.4,1.8H65.2
			c-1.2-0.1-2.3-0.1-3.4,0c-2.1,0.1-4,0.4-5.7,0.8c0.3-1.7,0.6-3.6,0.8-5.7v-3.4V75.6c0-1.7,0.7-3.2,1.8-4.4
			c0.1-0.1,0.1-0.1,0.2-0.2c1.2-1.1,2.6-1.6,4.2-1.6h11.9h3.4c2.1-0.1,4-0.4,5.7-0.8c-0.3,1.6-0.6,3.6-0.8,5.7
			c-0.1,1.1-0.1,2.3,0,3.4V89.6z"/>
	</g>
	<g>
		
			<linearGradient id="SVGID_3_" gradientUnits="userSpaceOnUse" x1="-65.4882" y1="75.6325" x2="817.7901" y2="75.6325" gradientTransform="matrix(1 0 0 -1 0 153.2051)">
			<stop  offset="0" style="stop-color:#723D1D"/>
			<stop  offset="0.2711" style="stop-color:#C9A551"/>
			<stop  offset="0.5479" style="stop-color:#FFE37B"/>
			<stop  offset="0.696" style="stop-color:#C9A551"/>
			<stop  offset="0.797" style="stop-color:#723D1D"/>
		</linearGradient>
		<path class="st2" d="M128.5,77.3l-0.1,7.4c0,0,0.1-5.6,10.9-5.6h4.5c1,0,1.2,1.5,1.2,3v10.5c-2.2,2-6,4.3-11.5,4.3
			c-9.4,0-17-8.7-17-19.5c0-10.7,7.6-19.5,17-19.5c3.9,0,7,1.2,8.8,3.4c1.3,1.5,1.8,3.4,1.5,5.4l-0.1,0.7l6.5-5.5l-0.4-0.2
			c-0.5-0.2-1.2-0.7-2-1.2c-2.6-1.8-7-4.9-14.1-4.9c-11.9,0-21.6,9.8-21.6,21.9c0,6,2.4,11.8,6.7,15.9c3.9,3.8,9,5.9,14.4,5.9
			c0.2,0,0.4,0,0.5,0c9-0.3,14.6-5.5,15.5-7.3l0-9.9c0-4,2-4.4,2.1-4.4l0-0.5L128.5,77.3L128.5,77.3z"/>
		
			<linearGradient id="SVGID_4_" gradientUnits="userSpaceOnUse" x1="-65.4882" y1="75.6375" x2="817.7901" y2="75.6375" gradientTransform="matrix(1 0 0 -1 0 153.2051)">
			<stop  offset="0" style="stop-color:#723D1D"/>
			<stop  offset="0.2711" style="stop-color:#C9A551"/>
			<stop  offset="0.5479" style="stop-color:#FFE37B"/>
			<stop  offset="0.696" style="stop-color:#C9A551"/>
			<stop  offset="0.797" style="stop-color:#723D1D"/>
		</linearGradient>
		<path class="st3" d="M175.7,55.7c-11.9,0-21.6,9.8-21.6,21.9s9.7,21.9,21.6,21.9c12,0,21.7-9.8,21.7-21.9S187.6,55.7,175.7,55.7z
			 M175.7,97.1c-9.5,0-17.3-8.8-17.3-19.5c0-10.8,7.8-19.6,17.3-19.6c9.6,0,17.3,8.8,17.3,19.6C193,88.4,185.3,97.1,175.7,97.1z"/>
		
			<linearGradient id="SVGID_5_" gradientUnits="userSpaceOnUse" x1="-65.4882" y1="75.5825" x2="817.7901" y2="75.5825" gradientTransform="matrix(1 0 0 -1 0 153.2051)">
			<stop  offset="0" style="stop-color:#723D1D"/>
			<stop  offset="0.2711" style="stop-color:#C9A551"/>
			<stop  offset="0.5479" style="stop-color:#FFE37B"/>
			<stop  offset="0.696" style="stop-color:#C9A551"/>
			<stop  offset="0.797" style="stop-color:#723D1D"/>
		</linearGradient>
		<path class="st4" d="M218.2,97.1c-7.7,0-10.7,0.1-10.7,0.1c-0.8,0-1-1-1-2.5V60.6c0-4,2-4.4,2.1-4.4l0-0.5h-8.4l0,0.5
			c0.1,0,2.1,0.4,2.1,4.4v34.1c0,4-2,4.4-2.1,4.4l0,0.5h30.7v-7.7C230.9,91.8,230.9,97.1,218.2,97.1z"/>
		
			<linearGradient id="SVGID_6_" gradientUnits="userSpaceOnUse" x1="-65.4882" y1="75.5724" x2="817.7901" y2="75.5724" gradientTransform="matrix(1 0 0 -1 0 153.2051)">
			<stop  offset="0" style="stop-color:#723D1D"/>
			<stop  offset="0.2711" style="stop-color:#C9A551"/>
			<stop  offset="0.5479" style="stop-color:#FFE37B"/>
			<stop  offset="0.696" style="stop-color:#C9A551"/>
			<stop  offset="0.797" style="stop-color:#723D1D"/>
		</linearGradient>
		<path class="st5" d="M245,55.7h-11.3l0,0.5c0.1,0,2.1,0.4,2.1,4.4v34.1c0,4-2,4.4-2.1,4.4l0,0.5H245c17.5,0,25.4-11,25.4-21.9
			C270.4,66.7,262.5,55.7,245,55.7z M240,60.6c0-2.3,1.7-2.4,1.9-2.4h3c12.4,0,21.1,8,21.1,19.6c0,11.8-8.3,19.5-21.1,19.5h-3
			c-0.1,0-1.9,0-1.9-2.5L240,60.6L240,60.6z"/>
		
			<linearGradient id="SVGID_7_" gradientUnits="userSpaceOnUse" x1="-65.4882" y1="75.5874" x2="817.7901" y2="75.5874" gradientTransform="matrix(1 0 0 -1 0 153.2051)">
			<stop  offset="0" style="stop-color:#723D1D"/>
			<stop  offset="0.2711" style="stop-color:#C9A551"/>
			<stop  offset="0.5479" style="stop-color:#FFE37B"/>
			<stop  offset="0.696" style="stop-color:#C9A551"/>
			<stop  offset="0.797" style="stop-color:#723D1D"/>
		</linearGradient>
		<path class="st6" d="M273.1,56.2c0.1,0,2.1,0.4,2.1,4.4v34.1c0,4-2,4.4-2.1,4.4l0,0.5h30.7v-7.7c0,0,0,5.3-12.7,5.3
			c-7.7,0-10,0.1-10,0.1c-1.4,0-1.7-1-1.7-2.5V74l2.9-0.1c9.1,0,10.3,3.9,10.3,3.9l0.5,1.8V66.9l-0.5,1.7c0,0-1.2,3.9-10.3,3.9h-2.9
			V60.5c0-0.7,0-1.5,0.5-2c0.3-0.3,0.7-0.4,1.2-0.4h10c12.8,0,12.7,5.4,12.7,5.4v-7.8h-30.7L273.1,56.2z"/>
		
			<linearGradient id="SVGID_8_" gradientUnits="userSpaceOnUse" x1="-65.4882" y1="75.5724" x2="817.7901" y2="75.5724" gradientTransform="matrix(1 0 0 -1 0 153.2051)">
			<stop  offset="0" style="stop-color:#723D1D"/>
			<stop  offset="0.2711" style="stop-color:#C9A551"/>
			<stop  offset="0.5479" style="stop-color:#FFE37B"/>
			<stop  offset="0.696" style="stop-color:#C9A551"/>
			<stop  offset="0.797" style="stop-color:#723D1D"/>
		</linearGradient>
		<path class="st7" d="M331.5,55.7l0,0.5c0,0,2.1,0.4,2.1,4.4v31.1l-17.2-31.2c-1.3-2.4-1.2-3.4-1-3.8c0.2-0.4,0.5-0.4,0.5-0.5
			l0-0.5h-9.2l0,0.5c0.1,0,2.1,0.4,2.1,4.4v34.1c0,4-2,4.4-2.1,4.4l0,0.5h6.4l0-0.5c-0.1,0-2.1-0.4-2.1-4.4V60.6
			c0-0.7,0-1.2,0.1-1.6c0.4,0.5,0.7,1.1,1.1,1.7l21.4,38.7l0.1,0.1h2.2v-39c0-4,2-4.4,2.1-4.4l0-0.5L331.5,55.7L331.5,55.7z"/>
		
			<linearGradient id="SVGID_9_" gradientUnits="userSpaceOnUse" x1="-65.4882" y1="75.5724" x2="817.7901" y2="75.5724" gradientTransform="matrix(1 0 0 -1 0 153.2051)">
			<stop  offset="0" style="stop-color:#723D1D"/>
			<stop  offset="0.2711" style="stop-color:#C9A551"/>
			<stop  offset="0.5479" style="stop-color:#FFE37B"/>
			<stop  offset="0.696" style="stop-color:#C9A551"/>
			<stop  offset="0.797" style="stop-color:#723D1D"/>
		</linearGradient>
		<path class="st8" d="M377.2,55.7h-20.1l0,0.5c0.1,0,2.1,0.4,2.1,4.4v34.1c0,4-2,4.4-2.1,4.4l0,0.5h8.4l0-0.5
			c-0.1,0-2.1-0.4-2.1-4.4V83.8h6.1c17.1,0,25.4-4.6,25.4-14C394.9,61.3,387.8,55.7,377.2,55.7z M363.4,60.6c0-1.7,0.4-2.4,1.3-2.4
			l12.5-0.1c7.6,0,13.2,4.8,13.2,11.5c0,7.7-7.2,11.9-20.8,12h-6.1V60.6z"/>
		
			<linearGradient id="SVGID_10_" gradientUnits="userSpaceOnUse" x1="-65.4882" y1="80.1974" x2="817.7901" y2="80.1974" gradientTransform="matrix(1 0 0 -1 0 153.2051)">
			<stop  offset="0" style="stop-color:#723D1D"/>
			<stop  offset="0.2711" style="stop-color:#C9A551"/>
			<stop  offset="0.5479" style="stop-color:#FFE37B"/>
			<stop  offset="0.696" style="stop-color:#C9A551"/>
			<stop  offset="0.797" style="stop-color:#723D1D"/>
		</linearGradient>
		<path class="st9" d="M439.3,60.6v24.8c0,4-2,4.4-2.1,4.4l0,0.5h8.4l0-0.5c-0.1,0-2.1-0.4-2.1-4.4V60.6c0.1-4,2.1-4.3,2.1-4.3
			l0-0.5h-8.4l0,0.5C437.3,56.3,439.3,56.7,439.3,60.6z"/>
		
			<linearGradient id="SVGID_11_" gradientUnits="userSpaceOnUse" x1="-65.4882" y1="75.5024" x2="817.7901" y2="75.5024" gradientTransform="matrix(1 0 0 -1 0 153.2051)">
			<stop  offset="0" style="stop-color:#723D1D"/>
			<stop  offset="0.2711" style="stop-color:#C9A551"/>
			<stop  offset="0.5479" style="stop-color:#FFE37B"/>
			<stop  offset="0.696" style="stop-color:#C9A551"/>
			<stop  offset="0.797" style="stop-color:#723D1D"/>
		</linearGradient>
		<path class="st10" d="M437.3,97.2c-3.3,0.2-8.2-1.2-13.1-8.4c-2.3-3.4-3.3-5-3.8-5.7c10.3-1.6,15.3-6,15.3-13.4
			c0-8.4-7.2-14-17.9-14h-20.1l0,0.5c0.1,0,2.1,0.4,2.1,4.3v34.1c0,4-2,4.4-2.1,4.4l0,0.5h8.4l0-0.5c0,0-2.1-0.3-2.1-4.4V83.8h6.1
			c2.5,0,4.5-0.1,6.3-0.2l5,7.5c2.9,4.1,7.8,8.5,13,8.5c6.4,0,10-2.1,11.9-7.1l-0.4-0.2C444.6,94.6,441.2,97.1,437.3,97.2z
			 M404,60.6c0-1.3,0.2-2.5,1.9-2.5h11.9c7.6,0,13.2,4.8,13.2,11.5c0,7.7-7.2,11.9-20.8,12H404L404,60.6L404,60.6z"/>
		
			<linearGradient id="SVGID_12_" gradientUnits="userSpaceOnUse" x1="-65.4882" y1="75.5675" x2="817.7901" y2="75.5675" gradientTransform="matrix(1 0 0 -1 0 153.2051)">
			<stop  offset="0" style="stop-color:#723D1D"/>
			<stop  offset="0.2711" style="stop-color:#C9A551"/>
			<stop  offset="0.5479" style="stop-color:#FFE37B"/>
			<stop  offset="0.696" style="stop-color:#C9A551"/>
			<stop  offset="0.797" style="stop-color:#723D1D"/>
		</linearGradient>
		<path class="st11" d="M484.7,55.7l0,0.5c0,0,0.4,0.1,0.7,0.6c0.3,0.5,0.5,1.6-0.4,3.7c0,0-12,30-13.8,34.6
			c-1.8-4.6-13.8-34.6-13.8-34.6c-0.9-2.1-0.7-3.2-0.4-3.7c0.3-0.5,0.7-0.6,0.7-0.6l0-0.5h-8.4l0,0.5c0,0,2.3,0.4,3.9,4.5l15.4,38.7
			l0.1,0.2h2.9l15.7-38.9c1.7-4.1,3.9-4.5,3.9-4.5l0-0.5L484.7,55.7L484.7,55.7z"/>
		
			<linearGradient id="SVGID_13_" gradientUnits="userSpaceOnUse" x1="-65.4882" y1="75.5824" x2="817.7901" y2="75.5824" gradientTransform="matrix(1 0 0 -1 0 153.2051)">
			<stop  offset="0" style="stop-color:#723D1D"/>
			<stop  offset="0.2711" style="stop-color:#C9A551"/>
			<stop  offset="0.5479" style="stop-color:#FFE37B"/>
			<stop  offset="0.696" style="stop-color:#C9A551"/>
			<stop  offset="0.797" style="stop-color:#723D1D"/>
		</linearGradient>
		<path class="st12" d="M502.5,56.2l0-0.5h-8.4l0,0.5c0.1,0,2.1,0.4,2.1,4.4v34.1c0,4-2,4.4-2.1,4.4l0,0.5h8.4l0-0.5
			c-0.1,0-2.1-0.4-2.1-4.4V60.6C500.4,56.6,502.4,56.2,502.5,56.2z"/>
		
			<linearGradient id="SVGID_14_" gradientUnits="userSpaceOnUse" x1="-65.4882" y1="75.5825" x2="817.7901" y2="75.5825" gradientTransform="matrix(1 0 0 -1 0 153.2051)">
			<stop  offset="0" style="stop-color:#723D1D"/>
			<stop  offset="0.2711" style="stop-color:#C9A551"/>
			<stop  offset="0.5479" style="stop-color:#FFE37B"/>
			<stop  offset="0.696" style="stop-color:#C9A551"/>
			<stop  offset="0.797" style="stop-color:#723D1D"/>
		</linearGradient>
		<path class="st13" d="M529.6,97.2h-16.7c-0.8,0-1-1-1-2.5V60.6c0-4,2-4.4,2.1-4.4l0-0.5h-8.4l0,0.5c0.1,0,2.1,0.4,2.1,4.4v34.1
			c0,4-2,4.4-2.1,4.4l0,0.5h36.7v-7.7C542.2,91.8,542.2,97.2,529.6,97.2z"/>
		
			<linearGradient id="SVGID_15_" gradientUnits="userSpaceOnUse" x1="-65.4882" y1="80.4124" x2="817.7901" y2="80.4124" gradientTransform="matrix(1 0 0 -1 0 153.2051)">
			<stop  offset="0" style="stop-color:#723D1D"/>
			<stop  offset="0.2711" style="stop-color:#C9A551"/>
			<stop  offset="0.5479" style="stop-color:#FFE37B"/>
			<stop  offset="0.696" style="stop-color:#C9A551"/>
			<stop  offset="0.797" style="stop-color:#723D1D"/>
		</linearGradient>
		<path class="st14" d="M517.4,56.2c0.1,0,2.1,0.5,2.1,4.4V85c0,4-2,4.4-2.1,4.4l0,0.5h24.8V83c0,0,0.1,5.4-12.6,5.4h-4.2
			c-1.4,0-1.7-1-1.7-2.5V70.3h1.7c3.8,0,6.1,2.9,6.1,2.9v-7.8c0,0-2.2,3.5-6.1,3.5h-1.7v-9c0-0.7,0-1.6,0.4-2
			c0.3-0.3,0.7-0.4,1.2-0.4c0,0,1.8,0.1,4.2,0.1c12.8,0,12.6,5.5,12.6,5.5v-7.2l-24.8-0.1L517.4,56.2z"/>
		
			<linearGradient id="SVGID_16_" gradientUnits="userSpaceOnUse" x1="-65.4882" y1="75.6325" x2="817.7901" y2="75.6325" gradientTransform="matrix(1 0 0 -1 0 153.2051)">
			<stop  offset="0" style="stop-color:#723D1D"/>
			<stop  offset="0.2711" style="stop-color:#C9A551"/>
			<stop  offset="0.5479" style="stop-color:#FFE37B"/>
			<stop  offset="0.696" style="stop-color:#C9A551"/>
			<stop  offset="0.797" style="stop-color:#723D1D"/>
		</linearGradient>
		<path class="st15" d="M561.1,77.3l-0.1,7.4c0,0,0.1-5.6,10.9-5.6h4.5c1,0,1.2,1.5,1.2,3v10.5c-2.2,2-6,4.3-11.5,4.3
			c-9.4,0-17-8.7-17-19.5c0-10.7,7.6-19.5,17-19.5c3.9,0,7,1.2,8.8,3.4c1.3,1.5,1.8,3.4,1.5,5.4l-0.1,0.7l6.5-5.5l-0.4-0.2
			c-0.5-0.2-1.2-0.7-2-1.2c-2.6-1.8-7-4.9-14.1-4.9c-11.9,0-21.6,9.8-21.6,21.9c0,6,2.4,11.8,6.7,15.9c3.9,3.8,9,5.9,14.4,5.9
			c0.2,0,0.4,0,0.5,0c9-0.3,14.6-5.5,15.5-7.3l0-9.9c0-4,2-4.4,2.1-4.4l0-0.5L561.1,77.3L561.1,77.3z"/>
		
			<linearGradient id="SVGID_17_" gradientUnits="userSpaceOnUse" x1="-65.4882" y1="75.5724" x2="817.7901" y2="75.5724" gradientTransform="matrix(1 0 0 -1 0 153.2051)">
			<stop  offset="0" style="stop-color:#723D1D"/>
			<stop  offset="0.2711" style="stop-color:#C9A551"/>
			<stop  offset="0.5479" style="stop-color:#FFE37B"/>
			<stop  offset="0.696" style="stop-color:#C9A551"/>
			<stop  offset="0.797" style="stop-color:#723D1D"/>
		</linearGradient>
		<path class="st16" d="M593.7,58.5c0.3-0.3,0.7-0.4,1.2-0.4h10c12.8,0,12.7,5.4,12.7,5.4v-7.8H587l0,0.5c0.1,0,2.1,0.4,2.1,4.4
			v34.1c0,4-2,4.4-2.1,4.4l0,0.5h30.7v-7.7c0,0,0,5.3-12.7,5.3c-7.7,0-10,0.1-10,0.1c-1.4,0-1.7-1-1.7-2.5V74l2.9-0.1
			c11.2,0,10.8,5.7,10.8,5.7V66.8l-0.5,1.8c0,0-1.2,3.9-10.3,3.9h-2.9V60.5C593.3,59.8,593.3,59,593.7,58.5z"/>
	</g>
</g>
</svg>
